<?xml version="1.0" standalone="no"?>
<!DOCTYPE svg PUBLIC "-//W3C//DTD SVG 20010904//EN"
 "http://www.w3.org/TR/2001/REC-SVG-20010904/DTD/svg10.dtd">
<svg version="1.0" xmlns="http://www.w3.org/2000/svg"
 width="200.000000pt" height="200.000000pt" viewBox="0 0 200.000000 200.000000"
 preserveAspectRatio="xMidYMid meet">

<g transform="translate(0.000000,200.000000) scale(0.100000,-0.100000)"
fill="#000000" stroke="none">
<path d="M120 1635 l0 -245 245 0 245 0 0 245 0 245 -245 0 -245 0 0 -245z
m420 0 l0 -175 -175 0 -175 0 0 175 0 175 175 0 175 0 0 -175z"/>
<path d="M260 1635 l0 -105 105 0 105 0 0 105 0 105 -105 0 -105 0 0 -105z"/>
<path d="M680 1845 c0 -33 2 -35 35 -35 33 0 35 -2 35 -35 0 -33 2 -35 35 -35
33 0 35 -2 35 -35 0 -33 2 -35 35 -35 l35 0 0 70 0 70 70 0 70 0 0 35 0 35
-70 0 -70 0 0 -35 0 -35 -70 0 -70 0 0 35 c0 33 -2 35 -35 35 -33 0 -35 -2
-35 -35z"/>
<path d="M1100 1810 l0 -70 -70 0 -70 0 0 -70 0 -70 -35 0 c-33 0 -35 -2 -35
-35 0 -33 -2 -35 -35 -35 -33 0 -35 2 -35 35 0 33 -2 35 -35 35 -33 0 -35 -2
-35 -35 0 -33 2 -35 35 -35 l35 0 0 -105 0 -105 -35 0 -35 0 0 70 0 70 -35 0
-35 0 0 -70 0 -70 35 0 35 0 0 -70 0 -70 35 0 c33 0 35 -2 35 -35 0 -33 -2
-35 -35 -35 l-35 0 0 -70 0 -70 -35 0 -35 0 0 -105 0 -105 -105 0 -105 0 0
-35 0 -35 105 0 105 0 0 -35 c0 -33 2 -35 35 -35 l35 0 0 70 0 70 35 0 c33 0
35 -2 35 -35 0 -33 2 -35 35 -35 33 0 35 -2 35 -35 0 -33 -2 -35 -35 -35 l-35
0 0 -70 0 -70 -70 0 -70 0 0 -70 0 -70 70 0 70 0 0 -35 0 -35 -70 0 -70 0 0
-70 0 -70 105 0 105 0 0 35 c0 33 -2 35 -35 35 -33 0 -35 2 -35 35 0 33 2 35
35 35 l35 0 0 70 0 70 -35 0 c-33 0 -35 2 -35 35 0 33 2 35 35 35 33 0 35 2
35 35 0 33 2 35 35 35 l35 0 0 -70 0 -70 35 0 c33 0 35 2 35 35 0 33 2 35 35
35 l35 0 0 -70 0 -70 70 0 70 0 0 -35 c0 -33 2 -35 35 -35 33 0 35 -2 35 -35
0 -33 -2 -35 -35 -35 -33 0 -35 -2 -35 -35 0 -33 2 -35 35 -35 33 0 35 2 35
35 0 33 2 35 35 35 l35 0 0 70 0 70 35 0 c33 0 35 2 35 35 l0 35 70 0 70 0 0
175 0 175 35 0 35 0 0 -70 0 -70 70 0 70 0 0 -35 c0 -33 -2 -35 -35 -35 l-35
0 0 -105 0 -105 -105 0 -105 0 0 -35 c0 -33 -2 -35 -35 -35 -33 0 -35 -2 -35
-35 l0 -35 70 0 70 0 0 -35 c0 -33 2 -35 35 -35 33 0 35 2 35 35 l0 35 70 0
70 0 0 -35 c0 -33 2 -35 35 -35 l35 0 0 175 0 175 -35 0 c-33 0 -35 2 -35 35
0 33 2 35 35 35 33 0 35 2 35 35 0 33 -2 35 -35 35 l-35 0 0 70 0 70 35 0 35
0 0 70 0 70 -35 0 c-33 0 -35 2 -35 35 0 33 2 35 35 35 l35 0 0 105 0 105 -35
0 c-33 0 -35 2 -35 35 0 33 2 35 35 35 33 0 35 2 35 35 0 33 -2 35 -35 35 -33
0 -35 -2 -35 -35 l0 -35 -175 0 -175 0 0 35 c0 33 -2 35 -35 35 -33 0 -35 -2
-35 -35 0 -33 2 -35 35 -35 33 0 35 -2 35 -35 l0 -35 70 0 70 0 0 -35 0 -35
-105 0 -105 0 0 35 0 35 -70 0 -70 0 0 35 c0 33 2 35 35 35 l35 0 0 280 0 280
-35 0 -35 0 0 -210 0 -210 -35 0 -35 0 0 105 0 105 -35 0 c-33 0 -35 2 -35 35
0 33 2 35 35 35 l35 0 0 105 0 105 -35 0 -35 0 0 -70z m0 -315 l0 -105 35 0
c33 0 35 -2 35 -35 0 -33 2 -35 35 -35 33 0 35 -2 35 -35 0 -33 -2 -35 -35
-35 -33 0 -35 2 -35 35 0 33 -2 35 -35 35 -33 0 -35 -2 -35 -35 l0 -35 -70 0
-70 0 0 -35 c0 -33 2 -35 35 -35 33 0 35 -2 35 -35 0 -33 2 -35 35 -35 33 0
35 2 35 35 0 33 2 35 35 35 33 0 35 -2 35 -35 0 -33 2 -35 35 -35 l35 0 0 -70
0 -70 -35 0 c-33 0 -35 2 -35 35 0 33 -2 35 -35 35 l-35 0 0 -140 0 -140 35 0
c33 0 35 2 35 35 0 33 2 35 35 35 33 0 35 2 35 35 0 33 2 35 35 35 l35 0 0
105 0 105 35 0 35 0 0 -70 0 -70 70 0 70 0 0 35 0 35 140 0 140 0 0 -35 c0
-33 -2 -35 -35 -35 -33 0 -35 -2 -35 -35 l0 -35 -70 0 -70 0 0 35 c0 33 -2 35
-35 35 l-35 0 0 -70 0 -70 35 0 c33 0 35 -2 35 -35 0 -33 -2 -35 -35 -35 -33
0 -35 2 -35 35 0 33 -2 35 -35 35 -33 0 -35 -2 -35 -35 0 -33 -2 -35 -35 -35
-33 0 -35 2 -35 35 0 33 -2 35 -35 35 -33 0 -35 -2 -35 -35 l0 -35 -70 0 -70
0 0 -35 c0 -33 2 -35 35 -35 l35 0 0 -70 0 -70 -35 0 c-33 0 -35 -2 -35 -35 0
-33 -2 -35 -35 -35 l-35 0 0 140 0 140 -35 0 c-33 0 -35 -2 -35 -35 l0 -35
-70 0 -70 0 0 35 c0 33 2 35 35 35 33 0 35 2 35 35 0 33 2 35 35 35 33 0 35 2
35 35 l0 35 -70 0 -70 0 0 -35 c0 -33 -2 -35 -35 -35 -33 0 -35 2 -35 35 0 33
-2 35 -35 35 -33 0 -35 2 -35 35 0 33 2 35 35 35 33 0 35 2 35 35 0 33 2 35
35 35 33 0 35 -2 35 -35 l0 -35 70 0 70 0 0 70 0 70 -35 0 c-33 0 -35 2 -35
35 l0 35 -70 0 -70 0 0 35 0 35 70 0 70 0 0 70 0 70 -35 0 -35 0 0 70 0 70 35
0 c33 0 35 2 35 35 l0 35 70 0 70 0 0 -105z m700 -350 l0 -35 -70 0 -70 0 0
35 0 35 70 0 70 0 0 -35z m0 -350 c0 -33 -2 -35 -35 -35 -33 0 -35 2 -35 35 0
33 2 35 35 35 33 0 35 -2 35 -35z m-280 -210 l0 -105 -105 0 -105 0 0 105 0
105 105 0 105 0 0 -105z m-490 0 c0 -33 -2 -35 -35 -35 -33 0 -35 2 -35 35 0
33 2 35 35 35 33 0 35 -2 35 -35z m630 -350 c0 -33 -2 -35 -35 -35 -33 0 -35
2 -35 35 0 33 2 35 35 35 33 0 35 -2 35 -35z"/>
<path d="M960 1460 l0 -70 35 0 c33 0 35 -2 35 -35 0 -33 2 -35 35 -35 33 0
35 2 35 35 0 33 -2 35 -35 35 l-35 0 0 70 0 70 -35 0 -35 0 0 -70z"/>
<path d="M1380 865 c0 -33 2 -35 35 -35 33 0 35 2 35 35 0 33 -2 35 -35 35
-33 0 -35 -2 -35 -35z"/>
<path d="M1380 585 c0 -33 2 -35 35 -35 33 0 35 2 35 35 0 33 -2 35 -35 35
-33 0 -35 -2 -35 -35z"/>
<path d="M1380 1635 l0 -245 245 0 245 0 0 245 0 245 -245 0 -245 0 0 -245z
m420 0 l0 -175 -175 0 -175 0 0 175 0 175 175 0 175 0 0 -175z"/>
<path d="M1520 1635 l0 -105 105 0 105 0 0 105 0 105 -105 0 -105 0 0 -105z"/>
<path d="M120 1250 l0 -70 35 0 c33 0 35 2 35 35 0 33 2 35 35 35 33 0 35 2
35 35 l0 35 -70 0 -70 0 0 -70z"/>
<path d="M330 1250 l0 -70 -35 0 c-33 0 -35 -2 -35 -35 0 -33 2 -35 35 -35 33
0 35 -2 35 -35 l0 -35 105 0 105 0 0 -35 0 -35 -70 0 -70 0 0 -35 c0 -33 -2
-35 -35 -35 -33 0 -35 2 -35 35 l0 35 -70 0 -70 0 0 70 0 70 -35 0 -35 0 0
-210 0 -210 35 0 35 0 0 70 0 70 35 0 35 0 0 -70 0 -70 35 0 c33 0 35 2 35 35
0 33 2 35 35 35 l35 0 0 70 0 70 70 0 70 0 0 -35 c0 -33 2 -35 35 -35 33 0 35
2 35 35 0 33 -2 35 -35 35 -33 0 -35 2 -35 35 0 33 2 35 35 35 33 0 35 2 35
35 0 33 2 35 35 35 l35 0 0 105 0 105 -35 0 c-33 0 -35 2 -35 35 0 33 -2 35
-35 35 -33 0 -35 -2 -35 -35 0 -33 -2 -35 -35 -35 -33 0 -35 2 -35 35 l0 35
-70 0 -70 0 0 -70z m280 -35 c0 -33 -2 -35 -35 -35 -33 0 -35 2 -35 35 0 33 2
35 35 35 33 0 35 -2 35 -35z m-210 -70 c0 -33 -2 -35 -35 -35 -33 0 -35 2 -35
35 0 33 2 35 35 35 33 0 35 -2 35 -35z m210 -70 c0 -33 -2 -35 -35 -35 -33 0
-35 2 -35 35 0 33 2 35 35 35 33 0 35 -2 35 -35z m-280 -210 c0 -33 -2 -35
-35 -35 -33 0 -35 2 -35 35 0 33 2 35 35 35 33 0 35 -2 35 -35z"/>
<path d="M120 375 l0 -245 245 0 245 0 0 245 0 245 -245 0 -245 0 0 -245z
m420 0 l0 -175 -175 0 -175 0 0 175 0 175 175 0 175 0 0 -175z"/>
<path d="M260 375 l0 -105 105 0 105 0 0 105 0 105 -105 0 -105 0 0 -105z"/>
<path d="M960 305 c0 -33 2 -35 35 -35 33 0 35 2 35 35 0 33 -2 35 -35 35 -33
0 -35 -2 -35 -35z"/>
<path d="M1100 235 l0 -35 -70 0 -70 0 0 -35 0 -35 105 0 105 0 0 70 0 70 -35
0 c-33 0 -35 -2 -35 -35z"/>
</g>
</svg>
